<?xml version="1.0" encoding="UTF-8"?>
<svg version="1.1" xmlns="http://www.w3.org/2000/svg" width="500" height="500">
<path d="M0 0 C0.99 0.495 0.99 0.495 2 1 C1.99032196 1.71108414 1.98064392 2.42216827 1.97067261 3.15480042 C1.88808457 9.87827856 1.85385517 16.60009793 1.87302971 23.32409763 C1.8812056 26.7807718 1.87112689 30.23532672 1.81835938 33.69165039 C1.75842035 37.67138665 1.77961716 41.64876254 1.8046875 45.62890625 C1.77494843 46.86145645 1.74520935 48.09400665 1.71456909 49.36390686 C1.763752 55.96901993 1.763752 55.96901993 5.20074463 61.34860229 C8.67826309 63.83990869 11.94215725 65.64738575 16 67 C16 67.66 16 68.32 16 69 C16.85722656 69.24105469 17.71445312 69.48210937 18.59765625 69.73046875 C22.36922969 71.13777227 25.16529938 72.97521385 28.4375 75.3125 C29.50871094 76.07175781 30.57992187 76.83101563 31.68359375 77.61328125 C32.2223133 78.01448087 32.76103285 78.41568048 33.31607723 78.82903767 C34.9758044 80.04008833 34.9758044 80.04008833 36.82717991 80.929286 C38.94414297 82.10102577 40.40856529 83.16656508 42 85 C43.02549208 88.7618296 42.8853683 92.43021342 42.79467773 96.30786133 C42.79569992 97.44975922 42.79672211 98.5916571 42.79777527 99.76815796 C42.79290057 103.54039811 42.73845741 107.31021428 42.68359375 111.08203125 C42.67053733 113.69804054 42.66057337 116.31406696 42.65357971 118.93009949 C42.63184346 125.11043648 42.57443029 131.28990421 42.50413328 137.46985883 C42.42582536 144.50720266 42.38738748 151.54458855 42.35226524 158.58225977 C42.27914448 173.05528777 42.15606145 187.52763172 42 202 C41.34 202 40.68 202 40 202 C40 201.34 40 200.68 40 200 C37.03 199.01 37.03 199.01 34 198 C34 197.34 34 196.68 34 196 C33.21625 195.814375 32.4325 195.62875 31.625 195.4375 C28.4130689 194.16380319 26.31581144 192.92539426 23.55078125 190.93359375 C17.62653019 186.72109384 11.60603315 182.6639397 5.5625 178.625 C4.48806641 177.90183594 3.41363281 177.17867187 2.30664062 176.43359375 C1.27861328 175.74652344 0.25058594 175.05945313 -0.80859375 174.3515625 C-1.73470459 173.73104004 -2.66081543 173.11051758 -3.61499023 172.47119141 C-6.00549323 170.87099225 -6.00549323 170.87099225 -9 170 C-9 169.34 -9 168.68 -9 168 C-9.69222656 167.75636719 -10.38445312 167.51273438 -11.09765625 167.26171875 C-15.66486868 165.27624148 -19.62592188 162.35962055 -23.74609375 159.58203125 C-27.61881984 157.69913321 -28.90126629 157.96488845 -33 159 C-35.63808994 160.30273308 -35.63808994 160.30273308 -38.15234375 162.01953125 C-39.09400391 162.62990234 -40.03566406 163.24027344 -41.00585938 163.86914062 C-41.97330078 164.51044922 -42.94074219 165.15175781 -43.9375 165.8125 C-45.86236123 167.07041935 -47.78812252 168.32696267 -49.71484375 169.58203125 C-50.61960449 170.17322754 -51.52436523 170.76442383 -52.45654297 171.37353516 C-55.57874031 173.37008715 -58.75631655 175.20898146 -62 177 C-66.83465495 172.16534505 -64.63966131 155.11993031 -64.875 148.125 C-64.89843475 147.44906044 -64.92186951 146.77312088 -64.9460144 146.0766983 C-65.73673214 120.41867365 -65.73673214 120.41867365 -60.14941406 113.90820312 C-55.50505217 109.78624583 -50.01994593 107.52779827 -44.37963867 105.10473633 C-37.71197562 102.43799077 -37.71197562 102.43799077 -33.16986084 97.22772217 C-30.56476673 87.57544324 -32.31006607 76.6796905 -34 67 C-34.59200195 67.38631592 -35.18400391 67.77263184 -35.79394531 68.1706543 C-61.89203328 85.19978241 -61.89203328 85.19978241 -74.78417969 93.56152344 C-76.8707839 94.91611489 -78.95506106 96.2742218 -81.0390625 97.6328125 C-87.23655475 101.66065664 -93.45599527 105.55487582 -100 109 C-101.07500162 105.77499514 -101.12925357 103.42970585 -101.1328125 100.0390625 C-101.13410156 98.84410156 -101.13539063 97.64914063 -101.13671875 96.41796875 C-101.13285156 95.16628906 -101.12898437 93.91460937 -101.125 92.625 C-101.12886719 91.41199219 -101.13273438 90.19898438 -101.13671875 88.94921875 C-101.13282178 85.2977564 -101.07050853 81.65072062 -101 78 C-101.00845947 76.80536133 -101.01691895 75.61072266 -101.02563477 74.37988281 C-100.84323935 66.14470045 -100.84323935 66.14470045 -98.64648438 63.16259766 C-96.73988636 61.66599228 -94.85141922 60.59061529 -92.6875 59.5 C-91.12772444 58.60622596 -89.56918007 57.71030068 -88.01171875 56.8125 C-87.19106934 56.35875 -86.37041992 55.905 -85.52490234 55.4375 C-81.22301761 52.98831248 -77.12764016 50.22908443 -73 47.5 C-71.29525233 46.38911735 -69.58952953 45.27972962 -67.8828125 44.171875 C-66.6438623 43.3665332 -66.6438623 43.3665332 -65.37988281 42.54492188 C-62.54654359 40.70563478 -59.70952849 38.87209609 -56.87182617 37.03955078 C-49.52369307 32.29412481 -42.19560786 27.51868374 -34.8760376 22.72930908 C-33.19770253 21.63167249 -31.51853139 20.53531465 -29.83935547 19.43896484 C-24.53247458 15.97294476 -19.23392439 12.49591069 -13.95703125 8.984375 C-13.03188721 8.37255371 -12.10674316 7.76073242 -11.15356445 7.13037109 C-9.41992319 5.98354243 -7.69038821 4.83047543 -5.96557617 3.67041016 C-5.20349854 3.16815918 -4.4414209 2.6659082 -3.65625 2.1484375 C-2.99431641 1.70677246 -2.33238281 1.26510742 -1.65039062 0.81005859 C-1.10576172 0.54273926 -0.56113281 0.27541992 0 0 Z " fill="#0267E5" transform="translate(279,140)"/>
<path d="M0 0 C5.59282371 1.11856474 5.59282371 1.11856474 8.625 3.5 C10.87946589 5.25460694 12.21695244 6.07231748 15 7 C15 7.66 15 8.32 15 9 C15.85722656 9.24105469 16.71445312 9.48210937 17.59765625 9.73046875 C21.36922969 11.13777227 24.16529938 12.97521385 27.4375 15.3125 C29.04431641 16.45138672 29.04431641 16.45138672 30.68359375 17.61328125 C31.2223133 18.01448087 31.76103285 18.41568048 32.31607723 18.82903767 C33.9758044 20.04008833 33.9758044 20.04008833 35.82717991 20.929286 C37.94414297 22.10102577 39.40856529 23.16656508 41 25 C42.02549208 28.7618296 41.8853683 32.43021342 41.79467773 36.30786133 C41.79569992 37.44975922 41.79672211 38.5916571 41.79777527 39.76815796 C41.79290057 43.54039811 41.73845741 47.31021428 41.68359375 51.08203125 C41.67053733 53.69804054 41.66057337 56.31406696 41.65357971 58.93009949 C41.63184346 65.11043648 41.57443029 71.28990421 41.50413328 77.46985883 C41.42582536 84.50720266 41.38738748 91.54458855 41.35226524 98.58225977 C41.27914448 113.05528777 41.15606145 127.52763172 41 142 C40.34 142 39.68 142 39 142 C39 141.34 39 140.68 39 140 C37.02 139.34 35.04 138.68 33 138 C33 137.34 33 136.68 33 136 C32.21625 135.814375 31.4325 135.62875 30.625 135.4375 C27.4130689 134.16380319 25.31581144 132.92539426 22.55078125 130.93359375 C16.62653019 126.72109384 10.60603315 122.6639397 4.5625 118.625 C3.48806641 117.90183594 2.41363281 117.17867188 1.30664062 116.43359375 C0.27861328 115.74652344 -0.74941406 115.05945313 -1.80859375 114.3515625 C-2.73470459 113.73104004 -3.66081543 113.11051758 -4.61499023 112.47119141 C-7.00549323 110.87099225 -7.00549323 110.87099225 -10 110 C-10 109.34 -10 108.68 -10 108 C-10.69480469 107.74089844 -11.38960938 107.48179687 -12.10546875 107.21484375 C-15.31849894 105.86632501 -18.28246041 104.28285215 -21.3125 102.5625 C-22.91544922 101.66724609 -22.91544922 101.66724609 -24.55078125 100.75390625 C-25.35902344 100.17511719 -26.16726562 99.59632813 -27 99 C-27 98.01 -27 97.02 -27 96 C-27.99 95.67 -28.98 95.34 -30 95 C-28 92 -28 92 -25.1875 90.625 C-21.93714577 89.2013385 -21.93714577 89.2013385 -19.875 86.6875 C-14.32787654 81.50214546 -6.98322088 78.79328835 0 76 C0 50.92 0 25.84 0 0 Z " fill="#024EBA" transform="translate(280,200)"/>
<path d="M0 0 C1.18349103 3.75043563 1.15440019 7.34553612 1.19287109 11.25952148 C1.20104858 11.98359192 1.20922607 12.70766235 1.21765137 13.45367432 C1.24240593 15.84280586 1.25899223 18.23187856 1.2734375 20.62109375 C1.27876118 21.43862688 1.28408485 22.25616001 1.28956985 23.09846687 C1.31625318 27.42248724 1.33564681 31.74647917 1.35009766 36.07055664 C1.36345653 39.64698755 1.39135101 43.22285055 1.43212891 46.79907227 C1.48141548 51.12203644 1.50621278 55.44448421 1.51332474 59.76771736 C1.52003886 61.4131745 1.53526529 63.05862003 1.55921555 64.70391655 C1.59083823 67.00691794 1.59090998 69.30792249 1.58349609 71.61108398 C1.59158295 72.92028305 1.5996698 74.22948212 1.60800171 75.57835388 C0.8422238 79.88791578 -0.65608073 81.26948648 -4 84 C-6.21480824 85.51986242 -8.38872292 86.94052319 -10.6875 88.3125 C-11.26822266 88.67150391 -11.84894531 89.03050781 -12.44726562 89.40039062 C-16.73043155 92 -16.73043155 92 -19 92 C-19 92.66 -19 93.32 -19 94 C-21.97 94.99 -21.97 94.99 -25 96 C-25 96.66 -25 97.32 -25 98 C-25.99 97.67 -26.98 97.34 -28 97 C-28.0232116 87.60288116 -28.04095997 78.20577224 -28.05181217 68.80863094 C-28.05702173 64.4447573 -28.06408429 60.08090334 -28.07543945 55.71704102 C-28.08633694 51.50250112 -28.09229135 47.2879801 -28.09487724 43.0734272 C-28.09671915 41.4687527 -28.10031587 39.86407919 -28.10573006 38.25941277 C-28.11303163 36.00486933 -28.11398712 33.75040304 -28.11352539 31.49584961 C-28.115746 30.21455673 -28.11796661 28.93326385 -28.12025452 27.61314392 C-27.79318288 17.78601287 -27.79318288 17.78601287 -24.62329102 14.64477539 C-23.59389404 13.96922607 -22.56449707 13.29367676 -21.50390625 12.59765625 C-20.68079201 12.04651405 -20.68079201 12.04651405 -19.84104919 11.48423767 C-18.09435017 10.32271408 -16.32918725 9.19332435 -14.5625 8.0625 C-13.37829354 7.27729323 -12.19533473 6.49020136 -11.01367188 5.70117188 C-2.38196173 0 -2.38196173 0 0 0 Z " fill="#0265E2" transform="translate(206,244)"/>
<path d="M0 0 C0.33 0 0.66 0 1 0 C1.11590114 9.69233104 1.20471862 19.38442318 1.25906086 29.07729626 C1.28514391 33.57822857 1.32051776 38.07868644 1.37719727 42.5793457 C1.43156406 46.92359892 1.46143027 51.26739609 1.47438622 55.61196327 C1.48361781 57.26860038 1.50164546 58.92521279 1.52865028 60.5816555 C1.56500498 62.90418601 1.56994301 65.2248377 1.56762695 67.54760742 C1.58560333 68.23093643 1.60357971 68.91426544 1.62210083 69.61830139 C1.58158181 73.37900084 1.09241249 74.88799767 -1.33161926 77.82588196 C-4.30947924 80.25215457 -7.39558488 82.34778962 -10.6875 84.3125 C-11.26822266 84.67150391 -11.84894531 85.03050781 -12.44726562 85.40039062 C-16.73043155 88 -16.73043155 88 -19 88 C-19 88.66 -19 89.32 -19 90 C-21.97 90.99 -21.97 90.99 -25 92 C-25 92.66 -25 93.32 -25 94 C-25.99 93.67 -26.98 93.34 -28 93 C-28.0232116 83.60288116 -28.04095997 74.20577224 -28.05181217 64.80863094 C-28.05702173 60.4447573 -28.06408429 56.08090334 -28.07543945 51.71704102 C-28.08633694 47.50250112 -28.09229135 43.2879801 -28.09487724 39.0734272 C-28.09671915 37.4687527 -28.10031587 35.86407919 -28.10573006 34.25941277 C-28.11303163 32.00486933 -28.11398712 29.75040304 -28.11352539 27.49584961 C-28.115746 26.21455673 -28.11796661 24.93326385 -28.12025452 23.61314392 C-27.79728224 13.9091815 -27.79728224 13.9091815 -25.44140625 11.22265625 C-24.82136719 10.83980469 -24.20132813 10.45695312 -23.5625 10.0625 C-22.94503906 9.66160156 -22.32757813 9.26070313 -21.69140625 8.84765625 C-20 8 -20 8 -18 8 C-18 8.66 -18 9.32 -18 10 C-19.32 10.33 -20.64 10.66 -22 11 C-22.33 12.32 -22.66 13.64 -23 15 C-23.66 15 -24.32 15 -25 15 C-25.33 28.53 -25.66 42.06 -26 56 C-25.67 56 -25.34 56 -25 56 C-25 66.56 -25 77.12 -25 88 C-21.08268982 86.14470719 -21.08268982 86.14470719 -18 84 C-16.68 84 -15.36 84 -14 84 C-14 83.01 -14 82.02 -14 81 C-12.68 81 -11.36 81 -10 81 C-10 80.34 -10 79.68 -10 79 C-9.01 79 -8.02 79 -7 79 C-7 78.34 -7 77.68 -7 77 C-4.03 76.01 -4.03 76.01 -1 75 C-1.03029297 74.27337158 -1.06058594 73.54674316 -1.09179688 72.7980957 C-1.67533783 58.44635469 -2.10335037 44.1136284 -2.125 29.75 C-2.13176758 27.85954956 -2.13176758 27.85954956 -2.13867188 25.9309082 C-2.13673828 24.77292725 -2.13480469 23.61494629 -2.1328125 22.421875 C-2.13168457 21.39674805 -2.13055664 20.37162109 -2.12939453 19.31542969 C-2 17 -2 17 -1 16 C-0.76321284 13.30764224 -0.57801975 10.63501844 -0.4375 7.9375 C-0.39431641 7.17888672 -0.35113281 6.42027344 -0.30664062 5.63867188 C-0.20026367 3.75934562 -0.09960066 1.87969756 0 0 Z " fill="#6DA3DB" transform="translate(206,248)"/>
<path d="M0 0 C1.98 0.495 1.98 0.495 4 1 C4 39.61 4 78.22 4 118 C3.34 118 2.68 118 2 118 C2 117.34 2 116.68 2 116 C1.34 116 0.68 116 0 116 C-0.33 115.01 -0.66 114.02 -1 113 C-0.34 113 0.32 113 1 113 C1.02335001 98.7095972 1.04092307 84.41919736 1.05181217 70.12877941 C1.05703757 63.49364245 1.06412905 56.85851827 1.07543945 50.22338867 C1.08628044 43.82380866 1.09227942 37.42424097 1.09487724 31.02465248 C1.0967293 28.57934691 1.10034572 26.13404203 1.10573006 23.68874168 C1.11295651 20.27189027 1.11399025 16.85509021 1.11352539 13.43823242 C1.11712067 12.42043701 1.12071594 11.4026416 1.12442017 10.35400391 C1.1230455 9.42432297 1.12167084 8.49464203 1.12025452 7.53678894 C1.12117631 6.72837649 1.1220981 5.91996405 1.12304783 5.08705425 C1.07916888 2.80443263 1.07916888 2.80443263 0 0 Z " fill="#174C8F" transform="translate(317,224)"/>
<path d="M0 0 C0.66 0.33 1.32 0.66 2 1 C1.360625 1.598125 0.72125 2.19625 0.0625 2.8125 C-2.20310389 4.90810337 -2.20310389 4.90810337 -3 8 C-3.99 8 -4.98 8 -6 8 C-6 25.16 -6 42.32 -6 60 C-2.535 59.505 -2.535 59.505 1 59 C-1.88087546 61.40072955 -4.56404834 63.47291037 -8 65 C-9.71685604 63.28314396 -9.19842822 61.00454173 -9.25634766 58.6574707 C-9.28532135 57.51570877 -9.31429504 56.37394684 -9.34414673 55.19758606 C-9.42851893 50.64588814 -9.50149912 46.09421339 -9.54844093 41.54195881 C-9.58417288 38.08614835 -9.63736919 34.63267212 -9.73388672 31.17797852 C-9.84474083 27.19822869 -9.88174267 23.2194784 -9.9140625 19.23828125 C-9.95737701 18.00370682 -10.00069153 16.76913239 -10.0453186 15.49714661 C-10.02676846 7.06977169 -10.02676846 7.06977169 -6.93426514 3.8477478 C-4.67658957 2.32975288 -2.48965971 1.08899808 0 0 Z " fill="#4C98D5" transform="translate(225,252)"/>
<path d="M0 0 C0 0.66 0 1.32 0 2 C-1.32 2.33 -2.64 2.66 -4 3 C-4.33 4.32 -4.66 5.64 -5 7 C-5.66 7 -6.32 7 -7 7 C-7.33 20.53 -7.66 34.06 -8 48 C-7.67 48 -7.34 48 -7 48 C-7 58.56 -7 69.12 -7 80 C-5.68 80 -4.36 80 -3 80 C-3 80.99 -3 81.98 -3 83 C-4.98 83.495 -4.98 83.495 -7 84 C-7 84.66 -7 85.32 -7 86 C-7.99 85.67 -8.98 85.34 -10 85 C-10.0232116 75.60288116 -10.04095997 66.20577224 -10.05181217 56.80863094 C-10.05702173 52.4447573 -10.06408429 48.08090334 -10.07543945 43.71704102 C-10.08633694 39.50250112 -10.09229135 35.2879801 -10.09487724 31.0734272 C-10.09671915 29.4687527 -10.10031587 27.86407919 -10.10573006 26.25941277 C-10.11303163 24.00486933 -10.11398712 21.75040304 -10.11352539 19.49584961 C-10.115746 18.21455673 -10.11796661 16.93326385 -10.12025452 15.61314392 C-9.79728224 5.9091815 -9.79728224 5.9091815 -7.44140625 3.22265625 C-6.51134766 2.64837891 -6.51134766 2.64837891 -5.5625 2.0625 C-4.94503906 1.66160156 -4.32757813 1.26070313 -3.69140625 0.84765625 C-2 0 -2 0 0 0 Z " fill="#4E83EA" transform="translate(188,256)"/>
<path d="M0 0 C0.33 0.99 0.66 1.98 1 3 C-1.69648689 5.69648689 -4.66611962 7.14784424 -8 9 C-7.98839844 9.92296875 -7.97679687 10.8459375 -7.96484375 11.796875 C-7.8880801 22.89470559 -8.36436467 33.92178423 -9 45 C-4.27382821 43.25841711 -4.27382821 43.25841711 -0.375 40.25 C0.07875 39.8375 0.5325 39.425 1 39 C3.6875 39.3125 3.6875 39.3125 6 40 C2.53726925 42.86134241 -1.00686276 45.36574534 -4.8125 47.75 C-5.78832031 48.36359375 -6.76414063 48.9771875 -7.76953125 49.609375 C-8.87361328 50.29773438 -8.87361328 50.29773438 -10 51 C-12.32302661 47.51546009 -12.24618994 46.150616 -12.23046875 42.0390625 C-12.22853516 40.84410156 -12.22660156 39.64914063 -12.22460938 38.41796875 C-12.21236328 37.16628906 -12.20011719 35.91460937 -12.1875 34.625 C-12.18685547 33.41199219 -12.18621094 32.19898438 -12.18554688 30.94921875 C-12.16800795 27.29722557 -12.09348402 23.65078392 -12 20 C-11.98670654 18.79158447 -11.97341309 17.58316895 -11.9597168 16.33813477 C-11.65381802 7.73133778 -11.65381802 7.73133778 -8.49609375 4.19921875 C-7.48675781 3.70035156 -6.47742188 3.20148438 -5.4375 2.6875 C-3.91962891 1.88892578 -3.91962891 1.88892578 -2.37109375 1.07421875 C-1.58863281 0.71972656 -0.80617187 0.36523438 0 0 Z " fill="#1A69C1" transform="translate(190,198)"/>
<path d="M0 0 C1 3.875 1 3.875 1 5 C-0.65 5 -2.3 5 -4 5 C-4.309375 5.928125 -4.309375 5.928125 -4.625 6.875 C-6.53706717 9.8300129 -8.72780688 9.95568305 -12 11 C-12.33 11.99 -12.66 12.98 -13 14 C-14.32 14 -15.64 14 -17 14 C-17.103125 14.763125 -17.20625 15.52625 -17.3125 16.3125 C-18.08011118 19.3131619 -18.44011086 20.29340724 -21 22 C-24.25 22.625 -24.25 22.625 -28 23 C-29.299375 23.185625 -30.59875 23.37125 -31.9375 23.5625 C-32.948125 23.706875 -33.95875 23.85125 -35 24 C-31.51545501 20.1272803 -27.49147247 17.56768126 -23.125 14.8125 C-22.38064697 14.33707764 -21.63629395 13.86165527 -20.86938477 13.37182617 C-19.33655091 12.39303651 -17.80244557 11.41623528 -16.26708984 10.44140625 C-13.43979926 8.64382671 -10.62261214 6.83084115 -7.80615234 5.01635742 C-5.20601677 3.34125048 -2.60297554 1.67068953 0 0 Z " fill="#106AD6" transform="translate(273,144)"/>
<path d="M0 0 C1.98 0 3.96 0 6 0 C7.56544436 3.13088871 7.00148591 6.42714023 6.87890625 9.8515625 C6.85529526 10.62559418 6.83168427 11.39962585 6.80735779 12.19711304 C6.73068562 14.6732603 6.64667684 17.14909759 6.5625 19.625 C6.50928285 21.30206808 6.45654243 22.97915137 6.40429688 24.65625 C6.27506572 28.77103023 6.13925354 32.88554725 6 37 C4.515 37.495 4.515 37.495 3 38 C2.34 37.34 1.68 36.68 1 36 C1.99 35.505 1.99 35.505 3 35 C3 24.44 3 13.88 3 3 C0.03 4.65 -2.94 6.3 -6 8 C-6 7.01 -6 6.02 -6 5 C-5.34 5 -4.68 5 -4 5 C-4 4.34 -4 3.68 -4 3 C-2.68 3 -1.36 3 0 3 C0 2.01 0 1.02 0 0 Z " fill="#2976CF" transform="translate(242,204)"/>
<path d="M0 0 C0.33 0 0.66 0 1 0 C1 10.56 1 21.12 1 32 C2.32 32 3.64 32 5 32 C5 32.99 5 33.98 5 35 C3.02 35.495 3.02 35.495 1 36 C1 36.66 1 37.32 1 38 C0.01 37.67 -0.98 37.34 -2 37 C-2.02465881 33.03069011 -2.04284023 29.06140966 -2.05493164 25.09204102 C-2.05997057 23.74079614 -2.06680177 22.38955674 -2.07543945 21.03833008 C-2.08752419 19.09979566 -2.09269828 17.161222 -2.09765625 15.22265625 C-2.10289307 14.05484619 -2.10812988 12.88703613 -2.11352539 11.68383789 C-2 9 -2 9 -1 8 C-0.76924918 6.65252916 -0.58846937 5.29622435 -0.4375 3.9375 C-0.293125 2.638125 -0.14875 1.33875 0 0 Z " fill="#0983D8" transform="translate(180,304)"/>
<path d="M0 0 C-3.51909616 2.25272575 -7.04058493 4.50168436 -10.5625 6.75 C-11.55314453 7.38421875 -12.54378906 8.0184375 -13.56445312 8.671875 C-18.64435367 11.91221023 -23.73215838 15.07424224 -29 18 C-29 16.35 -29 14.7 -29 13 C-28.01 12.67 -27.02 12.34 -26 12 C-26 11.01 -26 10.02 -26 9 C-23.69 9.33 -21.38 9.66 -19 10 C-19 9.34 -19 8.68 -19 8 C-18.01 8 -17.02 8 -16 8 C-16 7.34 -16 6.68 -16 6 C-15.01 6 -14.02 6 -13 6 C-13 5.34 -13 4.68 -13 4 C-12.34 4 -11.68 4 -11 4 C-11 3.34 -11 2.68 -11 2 C-9.73392393 1.46770674 -8.46189588 0.94955456 -7.1875 0.4375 C-6.47980469 0.14746094 -5.77210938 -0.14257812 -5.04296875 -0.44140625 C-3 -1 -3 -1 0 0 Z " fill="#4584D0" transform="translate(233,215)"/>
<path d="M0 0 C2.36924875 2.45699871 3.40339753 4.65902615 4 8 C5.0828125 8.0928125 5.0828125 8.0928125 6.1875 8.1875 C9.88556786 9.25583071 11.44412779 11.17508861 14 14 C14.598125 14.598125 15.19625 15.19625 15.8125 15.8125 C16.204375 16.204375 16.59625 16.59625 17 17 C16.34 17.33 15.68 17.66 15 18 C14.34 17.67 13.68 17.34 13 17 C13 16.34 13 15.68 13 15 C12.21625 14.814375 11.4325 14.62875 10.625 14.4375 C3.8263493 11.74148334 -1.96444283 7.2676105 -7 2 C-4 0 -4 0 0 0 Z " fill="#2563B6" transform="translate(300,321)"/>
<path d="M0 0 C0 0.66 0 1.32 0 2 C-0.99 2.495 -0.99 2.495 -2 3 C-1.67 3.33 -1.34 3.66 -1 4 C-0.92794489 5.68608966 -0.91613932 7.37500659 -0.9375 9.0625 C-0.94652344 9.98160156 -0.95554688 10.90070313 -0.96484375 11.84765625 C-0.97644531 12.55792969 -0.98804688 13.26820313 -1 14 C-1.33 12.68 -1.66 11.36 -2 10 C-4.31 10 -6.62 10 -9 10 C-9.33 10.66 -9.66 11.32 -10 12 C-11.32 11.34 -12.64 10.68 -14 10 C-13.34 10 -12.68 10 -12 10 C-11.92652344 9.40703125 -11.85304687 8.8140625 -11.77734375 8.203125 C-10.72252424 5.21358628 -9.21196244 4.4286994 -6.5625 2.75 C-5.75941406 2.22921875 -4.95632812 1.7084375 -4.12890625 1.171875 C-2 0 -2 0 0 0 Z " fill="#0464DC" transform="translate(206,244)"/>
<path d="M0 0 C-3.14785388 3.44248059 -6.65806277 5.85921194 -10.625 8.25 C-11.50285156 8.79527344 -11.50285156 8.79527344 -12.3984375 9.3515625 C-16.73948543 12 -16.73948543 12 -19 12 C-19 12.66 -19 13.32 -19 14 C-19.66 14 -20.32 14 -21 14 C-21 12.35 -21 10.7 -21 9 C-17.535 8.505 -17.535 8.505 -14 8 C-14 7.01 -14 6.02 -14 5 C-12.68 5 -11.36 5 -10 5 C-10 4.34 -10 3.68 -10 3 C-9.01 3 -8.02 3 -7 3 C-7 2.34 -7 1.68 -7 1 C-3.375 -1.125 -3.375 -1.125 0 0 Z " fill="#3E83D1" transform="translate(206,324)"/>
<path d="M0 0 C0.33 0 0.66 0 1 0 C1 2.64 1 5.28 1 8 C5.7513417 6.28217055 5.7513417 6.28217055 9.625 3.25 C10.07875 2.8375 10.5325 2.425 11 2 C13.6875 2.3125 13.6875 2.3125 16 3 C12.53726925 5.86134241 8.99313724 8.36574534 5.1875 10.75 C4.21167969 11.36359375 3.23585937 11.9771875 2.23046875 12.609375 C1.49441406 13.06828125 0.75835937 13.5271875 0 14 C-0.66 13.01 -1.32 12.02 -2 11 C-1.34 11 -0.68 11 0 11 C0 7.37 0 3.74 0 0 Z " fill="#407FCD" transform="translate(180,235)"/>
<path d="M0 0 C0.33 0 0.66 0 1 0 C1.33 15.18 1.66 30.36 2 46 C1.34 46 0.68 46 0 46 C0 45.34 0 44.68 0 44 C-0.66 44 -1.32 44 -2 44 C-2.495 42.515 -2.495 42.515 -3 41 C-2.34 41 -1.68 41 -1 41 C-0.67 27.47 -0.34 13.94 0 0 Z " fill="#1953A0" transform="translate(319,296)"/>
<path d="M0 0 C0.66 0.33 1.32 0.66 2 1 C1.38722388 3.96175123 0.74627478 5.38058783 -1 8 C-3.32031805 8.41434251 -5.65639085 8.74889902 -8 9 C-8.99 9.495 -8.99 9.495 -10 10 C-10.66 9.34 -11.32 8.68 -12 8 C-8.04 5.36 -4.08 2.72 0 0 Z " fill="#2E79D7" transform="translate(228,173)"/>
<path d="M0 0 C0.33 0 0.66 0 1 0 C1 12.54 1 25.08 1 38 C-0.98 38.495 -0.98 38.495 -3 39 C-2.49396008 36.83125748 -2.00016187 35.00032373 -1 33 C-0.84373424 30.52167341 -0.74186802 28.06688669 -0.68359375 25.5859375 C-0.66281265 24.85629791 -0.64203156 24.12665833 -0.62062073 23.37490845 C-0.55518083 21.04170237 -0.49626632 18.70838279 -0.4375 16.375 C-0.39430947 14.79425905 -0.35069501 13.21352961 -0.30664062 11.6328125 C-0.19950519 7.75532496 -0.09822218 3.87772315 0 0 Z " fill="#0661DC" transform="translate(279,238)"/>
<path d="M0 0 C0 0.66 0 1.32 0 2 C-1.32 2.33 -2.64 2.66 -4 3 C-4.33 4.32 -4.66 5.64 -5 7 C-5.66 7 -6.32 7 -7 7 C-7.33 12.94 -7.66 18.88 -8 25 C-8.33 25 -8.66 25 -9 25 C-10.51162791 9.53488372 -10.51162791 9.53488372 -9 5 C-6.4484373 2.49959646 -3.68800678 0 0 0 Z " fill="#1589CB" transform="translate(188,256)"/>
<path d="M0 0 C1 4 1 4 1 5 C-0.65 5 -2.3 5 -4 5 C-4.2475 5.639375 -4.495 6.27875 -4.75 6.9375 C-6 9 -6 9 -7.875 9.8125 C-10 10 -10 10 -14 9 C-9.38 6.03 -4.76 3.06 0 0 Z " fill="#448AD4" transform="translate(273,144)"/>
<path d="M0 0 C-2.454676 1.67228535 -4.91339674 3.3379686 -7.375 5 C-8.42300781 5.71542969 -8.42300781 5.71542969 -9.4921875 6.4453125 C-10.1625 6.89648438 -10.8328125 7.34765625 -11.5234375 7.8125 C-12.14138184 8.23144531 -12.75932617 8.65039062 -13.39599609 9.08203125 C-15 10 -15 10 -17 10 C-17 9.34 -17 8.68 -17 8 C-15.68 7.67 -14.36 7.34 -13 7 C-13.33 6.01 -13.66 5.02 -14 4 C-12.35 3.67 -10.7 3.34 -9 3 C-8.67 2.01 -8.34 1.02 -8 0 C-4.99093136 -1.24513185 -3.0590674 -0.84653438 0 0 Z " fill="#3577C9" transform="translate(244,300)"/>
<path d="M0 0 C3.63998214 1.42999298 6.88407363 3.66305522 10 6 C10 6.99 10 7.98 10 9 C7.69 8.67 5.38 8.34 3 8 C2.731875 7.21625 2.46375 6.4325 2.1875 5.625 C1.15185568 2.71885077 1.15185568 2.71885077 -2 1 C-1.34 0.67 -0.68 0.34 0 0 Z " fill="#094FB0" transform="translate(302,213)"/>
<path d="M0 0 C-3.20585819 2.6562825 -6.43675019 4.86205011 -10 7 C-11.2684375 8.11375 -11.2684375 8.11375 -12.5625 9.25 C-15 11 -15 11 -17.3125 10.75 C-17.869375 10.5025 -18.42625 10.255 -19 10 C-17.948125 9.443125 -16.89625 8.88625 -15.8125 8.3125 C-12.31313367 6.32999609 -9.80821974 3.88411758 -7 1 C-3.93011632 -0.98639532 -3.59481737 -1.19827246 0 0 Z " fill="#025BCF" transform="translate(270,283)"/>
<path d="M0 0 C0 0.66 0 1.32 0 2 C-0.99 2.495 -0.99 2.495 -2 3 C-1.67 3.33 -1.34 3.66 -1 4 C-0.92794489 5.68608966 -0.91613932 7.37500659 -0.9375 9.0625 C-0.94652344 9.98160156 -0.95554688 10.90070313 -0.96484375 11.84765625 C-0.97644531 12.55792969 -0.98804688 13.26820313 -1 14 C-1.33 14 -1.66 14 -2 14 C-2 11.03 -2 8.06 -2 5 C-3.65 5.33 -5.3 5.66 -7 6 C-7 6.66 -7 7.32 -7 8 C-8.65 8 -10.3 8 -12 8 C-4.57142857 0 -4.57142857 0 0 0 Z " fill="#458ED6" transform="translate(206,244)"/>
<path d="M0 0 C4.31392226 0.4793247 6.16569547 1.7457985 9 5 C8.38125 5.12375 7.7625 5.2475 7.125 5.375 C4.80879168 5.87197356 4.80879168 5.87197356 3 8 C2.34 7.34 1.68 6.68 1 6 C0.67 6 0.34 6 0 6 C0 4.02 0 2.04 0 0 Z " fill="#2360B8" transform="translate(280,200)"/>
<path d="M0 0 C0.33 0.66 0.66 1.32 1 2 C0.34 2 -0.32 2 -1 2 C-1 2.66 -1 3.32 -1 4 C-1.66 4 -2.32 4 -3 4 C-3.226875 4.61875 -3.45375 5.2375 -3.6875 5.875 C-5.42148712 8.68240771 -6.84570354 9.17387474 -10 10 C-11.32 9.67 -12.64 9.34 -14 9 C-9.38 6.03 -4.76 3.06 0 0 Z " fill="#4987D5" transform="translate(242,241)"/>
<path d="M0 0 C0 0.66 0 1.32 0 2 C-0.9590625 2.1546875 -0.9590625 2.1546875 -1.9375 2.3125 C-2.618125 2.539375 -3.29875 2.76625 -4 3 C-4.33 3.99 -4.66 4.98 -5 6 C-8.97870856 8.60146329 -12.22076642 10.42069896 -17 11 C-13.71260831 8.26050693 -10.29434726 5.73415441 -6.8125 3.25 C-5.95269531 2.63640625 -5.09289062 2.0228125 -4.20703125 1.390625 C-2 0 -2 0 0 0 Z " fill="#5B97D6" transform="translate(259,154)"/>
<path d="M0 0 C0.66 0.33 1.32 0.66 2 1 C1.360625 1.598125 0.72125 2.19625 0.0625 2.8125 C-2.20310389 4.90810337 -2.20310389 4.90810337 -3 8 C-3.99 8 -4.98 8 -6 8 C-6.33 8.66 -6.66 9.32 -7 10 C-7.33 8.35 -7.66 6.7 -8 5 C-6.71475739 4.13619741 -5.42157581 3.28419631 -4.125 2.4375 C-3.04605469 1.72400391 -3.04605469 1.72400391 -1.9453125 0.99609375 C-1.30335938 0.66738281 -0.66140625 0.33867187 0 0 Z " fill="#3F7CD0" transform="translate(225,252)"/>
<path d="M0 0 C1.32 0.66 2.64 1.32 4 2 C3.875 3.8125 3.875 3.8125 3 6 C-0.0625 7.75 -0.0625 7.75 -3 9 C-3 7.35 -3 5.7 -3 4 C-2.01 3.67 -1.02 3.34 0 3 C0 2.01 0 1.02 0 0 Z " fill="#387FD8" transform="translate(207,224)"/>
<path d="M0 0 C0.33 0 0.66 0 1 0 C1 5.28 1 10.56 1 16 C2.65 16 4.3 16 6 16 C4.02 16.99 4.02 16.99 2 18 C2 18.66 2 19.32 2 20 C1.01 19.67 0.02 19.34 -1 19 C-0.67 12.73 -0.34 6.46 0 0 Z " fill="#4981C7" transform="translate(179,322)"/>
<path d="M0 0 C0.33 0 0.66 0 1 0 C1 2.64 1 5.28 1 8 C1.99 8 2.98 8 4 8 C4.33 8.99 4.66 9.98 5 11 C3.02 11.99 1.04 12.98 -1 14 C-1.33 13.01 -1.66 12.02 -2 11 C-1.34 11 -0.68 11 0 11 C0 7.37 0 3.74 0 0 Z " fill="#3578CD" transform="translate(180,235)"/>
<path d="M0 0 C0.33 1.32 0.66 2.64 1 4 C-0.32 4 -1.64 4 -3 4 C-3.33 4.99 -3.66 5.98 -4 7 C-6.31 7.33 -8.62 7.66 -11 8 C-7.45960866 5.0843836 -3.8373228 2.49872182 0 0 Z " fill="#4181D0" transform="translate(210,185)"/>
<path d="M0 0 C2.64 0 5.28 0 8 0 C8 1.32 8 2.64 8 4 C8.66 4 9.32 4 10 4 C10.33 4.99 10.66 5.98 11 7 C6.89188572 5.55007731 3.53144334 3.54592427 0 1 C0 0.67 0 0.34 0 0 Z " fill="#4072B6" transform="translate(280,315)"/>
<path d="M0 0 C4.51650194 0.53135317 7.42058156 2.23408575 11 5 C11.33 5.99 11.66 6.98 12 8 C10.68 7.67 9.36 7.34 8 7 C8 6.34 8 5.68 8 5 C7.05125 4.731875 6.1025 4.46375 5.125 4.1875 C2 3 2 3 0 0 Z " fill="#5986BB" transform="translate(305,331)"/>
<path d="M0 0 C4.95 0.99 4.95 0.99 10 2 C10.33 3.32 10.66 4.64 11 6 C10.01 6.495 10.01 6.495 9 7 C6.96855359 6.06553465 4.96466413 5.06775224 3 4 C3 3.34 3 2.68 3 2 C2.01 1.67 1.02 1.34 0 1 C0 0.67 0 0.34 0 0 Z " fill="#3468B0" transform="translate(267,306)"/>
<path d="M0 0 C0.33 0.66 0.66 1.32 1 2 C4.465 1.505 4.465 1.505 8 1 C5.11912454 3.40072955 2.43595166 5.47291037 -1 7 C-0.67 4.69 -0.34 2.38 0 0 Z " fill="#3478C6" transform="translate(218,310)"/>
<path d="M0 0 C0.33 0.99 0.66 1.98 1 3 C-1.00773956 5.00773956 -2.36873617 5.99392854 -5 7 C-6.32 6.67 -7.64 6.34 -9 6 C-6.03 4.02 -3.06 2.04 0 0 Z " fill="#3C7FCF" transform="translate(190,198)"/>
<path d="M0 0 C2.16874252 0.50603992 3.99967627 0.99983813 6 2 C5.67 2.66 5.34 3.32 5 4 C2.35139573 4.59355614 -0.29197322 4.74209269 -3 5 C-3 4.01 -3 3.02 -3 2 C-2.01 2 -1.02 2 0 2 C0 1.34 0 0.68 0 0 Z " fill="#558FD4" transform="translate(247,294)"/>
<path d="M0 0 C2 1 2 1 3 3 C0.03 4.65 -2.94 6.3 -6 8 C-6 7.01 -6 6.02 -6 5 C-5.34 5 -4.68 5 -4 5 C-4 4.34 -4 3.68 -4 3 C-2.68 3 -1.36 3 0 3 C0 2.01 0 1.02 0 0 Z " fill="#4485D2" transform="translate(242,204)"/>
<path d="M0 0 C3.18127756 1.31639071 6.06678928 3.20748233 9 5 C8.34 5.66 7.68 6.32 7 7 C7 6.34 7 5.68 7 5 C6.2575 4.896875 5.515 4.79375 4.75 4.6875 C1.82985982 3.95746496 0.26812446 2.93210602 -2 1 C-1.34 0.67 -0.68 0.34 0 0 Z " fill="#4D7BB8" transform="translate(302,213)"/>
<path d="M0 0 C-1.625 2 -1.625 2 -4 4 C-7.25 4.25 -7.25 4.25 -10 4 C-6.58908673 0.88145073 -4.68377325 -0.53528837 0 0 Z " fill="#297AD3" transform="translate(269,150)"/>
<path d="M0 0 C1.5 1.3125 1.5 1.3125 3 3 C3 3.99 3 4.98 3 6 C1.68 6 0.36 6 -1 6 C-1.33 4.35 -1.66 2.7 -2 1 C-1.34 0.67 -0.68 0.34 0 0 Z " fill="#0A67D7" transform="translate(224,305)"/>
<path d="M0 0 C2.31 0 4.62 0 7 0 C3.80009492 2.74277578 0.99500618 4.6302836 -3 6 C-3 5.34 -3 4.68 -3 4 C-1.68 3.67 -0.36 3.34 1 3 C0.67 2.01 0.34 1.02 0 0 Z " fill="#3F80CF" transform="translate(230,304)"/>
<path d="M0 0 C-0.33 1.32 -0.66 2.64 -1 4 C-3.31 4 -5.62 4 -8 4 C-7.67 3.01 -7.34 2.02 -7 1 C-2.25 0 -2.25 0 0 0 Z " fill="#0C67D6" transform="translate(234,250)"/>
<path d="M0 0 C0 0.66 0 1.32 0 2 C-1.32 2.33 -2.64 2.66 -4 3 C-4.33 4.32 -4.66 5.64 -5 7 C-6.32 6.34 -7.64 5.68 -9 5 C-7.87926138 4.16094435 -6.75325453 3.32892169 -5.625 2.5 C-4.99851563 2.0359375 -4.37203125 1.571875 -3.7265625 1.09375 C-2 0 -2 0 0 0 Z " fill="#4885CE" transform="translate(188,256)"/>
<path d="M0 0 C2.31 0 4.62 0 7 0 C4.31158141 2.25245881 2.35358125 3.88213958 -1 5 C-0.67 3.35 -0.34 1.7 0 0 Z " fill="#4F8CD6" transform="translate(197,233)"/>
<path d="M0 0 C-5.75 4 -5.75 4 -8 4 C-7.67 2.68 -7.34 1.36 -7 0 C-3.98968256 -0.93423645 -3.13349732 -1.04449911 0 0 Z " fill="#5D98D9" transform="translate(233,215)"/>
<path d="M0 0 C0.33 0.99 0.66 1.98 1 3 C0.34 3 -0.32 3 -1 3 C-1 3.66 -1 4.32 -1 5 C-1.99 5.33 -2.98 5.66 -4 6 C-4.66 5.34 -5.32 4.68 -6 4 C-4.02 2.68 -2.04 1.36 0 0 Z " fill="#3E88D3" transform="translate(236,168)"/>
</svg>
